<?xml version="1.0" encoding="UTF-8" standalone="no"?>
<svg
   width="16"
   height="16"
   viewBox="0 0 512 512"
   fill="none"
   version="1.1"
   id="svg22"
   sodipodi:docname="app-dark.svg"
   inkscape:version="1.2.2 (b0a84865, 2022-12-01)"
   xmlns:inkscape="http://www.inkscape.org/namespaces/inkscape"
   xmlns:sodipodi="http://sodipodi.sourceforge.net/DTD/sodipodi-0.dtd"
   xmlns="http://www.w3.org/2000/svg"
   xmlns:svg="http://www.w3.org/2000/svg">
  <defs
     id="defs26" />
  <sodipodi:namedview
     id="namedview24"
     pagecolor="#ffffff"
     bordercolor="#000000"
     borderopacity="0.25"
     inkscape:showpageshadow="2"
     inkscape:pageopacity="0.0"
     inkscape:pagecheckerboard="0"
     inkscape:deskcolor="#d1d1d1"
     showgrid="false"
     showguides="false"
     inkscape:zoom="0.91458623"
     inkscape:cx="81.457601"
     inkscape:cy="271.16087"
     inkscape:window-width="1470"
     inkscape:window-height="816"
     inkscape:window-x="0"
     inkscape:window-y="33"
     inkscape:window-maximized="1"
     inkscape:current-layer="svg22" />
  <g
     id="g1349"
     style="fill:#000000"
     transform="matrix(1.1391144,0,0,1.1391144,-31.066599,-42.51733)">
    <path
       id="path1343"
       style="fill:#000000;stroke:none;stroke-width:0;stroke-dasharray:none"
       inkscape:label="kreis kreuz"
       d="M 219.71094,136.38281 C 201.88447,126.95585 181.5727,121.59961 160,121.59961 c -70.692187,0 -128,57.30821 -128,128 0,70.69179 57.307813,128 128,128 15.80982,0 30.94027,-2.88557 44.91992,-8.12695 -0.0532,-1.55396 -0.11914,-3.10496 -0.11914,-4.67188 0,-2.31959 0.0597,-4.62529 0.17578,-6.91601 0.11612,-2.29074 0.28817,-4.56711 0.51758,-6.82618 0.22942,-2.25905 0.51557,-4.50003 0.85547,-6.72461 0.3399,-2.22456 0.73407,-4.43186 1.18164,-6.61914 0.44757,-2.18726 0.94757,-4.35479 1.5,-6.50195 0.55243,-2.14716 1.15803,-4.27467 1.8125,-6.37891 0.65447,-2.10422 1.35763,-4.18565 2.11133,-6.24414 0.75369,-2.05847 1.55809,-4.09359 2.4082,-6.10351 0.85011,-2.00993 1.7477,-3.99458 2.69141,-5.95313 0.9437,-1.95854 1.93232,-3.89056 2.96679,-5.79492 1.03449,-1.90436 2.11388,-3.78156 3.23633,-5.6289 1.12246,-1.84736 2.28849,-3.66559 3.4961,-5.45313 1.20761,-1.78754 2.45614,-3.54463 3.74609,-5.26953 1.28995,-1.7249 2.62077,-3.41672 3.99023,-5.07617 1.36948,-1.65945 2.77844,-3.28577 4.22461,-4.87696 1.44619,-1.59117 2.92915,-3.14786 4.44922,-4.66797 1.52008,-1.52009 3.07682,-3.00495 4.66797,-4.45117 1.59116,-1.44621 3.21754,-2.85315 4.87695,-4.22265 1.65943,-1.36951 3.35326,-2.70026 5.07813,-3.99024 0.0646,-0.0483 0.13254,-0.0924 0.19727,-0.14062 -0.67112,-0.64398 -1.36188,-1.26812 -2.01954,-1.92578 -1.5201,-1.52011 -3.00496,-3.07679 -4.45117,-4.66797 -1.44621,-1.59119 -2.85315,-3.2175 -4.22265,-4.87696 -1.36951,-1.65945 -2.70026,-3.35127 -3.99024,-5.07617 -1.28998,-1.7249 -2.54041,-3.48199 -3.74805,-5.26953 -1.20763,-1.78753 -2.37361,-3.60577 -3.49609,-5.45312 -1.12248,-1.84736 -2.20181,-3.72455 -3.23633,-5.62891 -1.03451,-1.90436 -2.02306,-3.83637 -2.96679,-5.79492 -0.94373,-1.95855 -1.84128,-3.9432 -2.69141,-5.95313 -0.85013,-2.00992 -1.65253,-4.04503 -2.40625,-6.10351 -0.75372,-2.05849 -1.45879,-4.13991 -2.11328,-6.24414 -0.65449,-2.10423 -1.26006,-4.23175 -1.8125,-6.37891 -0.55245,-2.14716 -1.05242,-4.31468 -1.5,-6.50195 -0.44759,-2.18728 -0.84173,-4.39457 -1.18164,-6.61914 -0.33991,-2.22458 -0.62605,-4.46555 -0.85547,-6.72461 -0.22942,-2.25907 -0.40146,-4.53544 -0.51758,-6.82617 -0.11612,-2.29074 -0.17578,-4.59643 -0.17578,-6.91602 0,-2.31959 0.0597,-4.62528 0.17578,-6.91602 0.11612,-2.29073 0.28816,-4.5671 0.51758,-6.82617 0.22942,-2.25906 0.51556,-4.50198 0.85547,-6.72656 0.16173,-1.05846 0.37622,-2.09825 0.5625,-3.14844 z m -103.54883,68.41797 h 3.85547 c 1.2845,0 2.47687,0.047 3.57812,0.14453 1.10125,0.0975 2.10985,0.24446 3.02735,0.43946 0.50475,0.065 0.97014,0.16287 1.39453,0.29296 0.42439,0.1301 0.80828,0.29316 1.15234,0.48829 0.34406,0.19512 0.64835,0.42154 0.91211,0.68164 0.26377,0.26009 0.48838,0.5539 0.67188,0.8789 l 23.94726,34.71875 22.84766,-34.71875 c 0.2295,-0.325 0.48864,-0.61881 0.77539,-0.8789 0.28675,-0.2601 0.60131,-0.48652 0.94531,-0.68164 0.344,-0.19513 0.71594,-0.35819 1.11719,-0.48829 0.40125,-0.13009 0.83251,-0.22796 1.29101,-0.29296 1.01,-0.195 2.08751,-0.34196 3.23438,-0.43946 1.14687,-0.0975 2.36201,-0.14453 3.64648,-0.14453 h 3.30274 c 1.7895,0 3.35525,0.0689 4.69726,0.20703 1.34203,0.13813 2.46085,0.34485 3.35547,0.6211 0.44731,0.13812 0.83836,0.29414 1.17383,0.46679 0.33547,0.17266 0.6162,0.36118 0.83984,0.56836 0.22364,0.20719 0.39014,0.43211 0.50196,0.67383 0.11181,0.24172 0.16797,0.50109 0.16797,0.77734 0,0.19525 -0.0389,0.41432 -0.11914,0.65821 -0.0803,0.24389 -0.20077,0.51214 -0.36133,0.80468 -0.32113,0.58513 -0.80284,1.26883 -1.44531,2.04883 l -33.03321,43.49414 35.50977,45.64258 c 0.5505,0.65 0.96315,1.24999 1.23828,1.80274 0.27512,0.55275 0.41406,1.05674 0.41406,1.51171 0,0.26 -0.0326,0.5049 -0.0957,0.73243 -0.0631,0.22752 -0.15705,0.43776 -0.2832,0.63281 -0.12618,0.19505 -0.2834,0.37455 -0.47266,0.53711 -0.18926,0.16256 -0.41172,0.30939 -0.66406,0.43945 -0.50469,0.26013 -1.1356,0.45389 -1.89258,0.58399 -0.75699,0.13009 -1.63919,0.19531 -2.64844,0.19531 h -8.80859 c -1.2845,0 -2.49974,-0.047 -3.64649,-0.14453 -1.14675,-0.0975 -2.22487,-0.24446 -3.23437,-0.43946 -0.45875,-0.0975 -0.90172,-0.24084 -1.32617,-0.42773 -0.42446,-0.18689 -0.83065,-0.41705 -1.22071,-0.69336 -0.39006,-0.27631 -0.76356,-0.59712 -1.11914,-0.96289 -0.35558,-0.36577 -0.69462,-0.77717 -1.01562,-1.23242 L 152.77344,265.84961 128,303.29883 c -0.32125,0.45525 -0.66617,0.86665 -1.0332,1.23242 -0.36703,0.36577 -0.75707,0.68658 -1.16992,0.96289 -0.41288,0.27631 -0.84786,0.50647 -1.30665,0.69336 -0.45878,0.18689 -0.94056,0.33023 -1.44531,0.42773 -0.9175,0.195 -1.92634,0.34196 -3.02734,0.43946 -1.101,0.0975 -2.29363,0.14453 -3.57813,0.14453 h -7.98437 c -1.00925,0 -1.89146,-0.0652 -2.64844,-0.19531 -0.75698,-0.1301 -1.38789,-0.32386 -1.89258,-0.58399 -0.25234,-0.13006 -0.47284,-0.27689 -0.66211,-0.43945 -0.18926,-0.16256 -0.34647,-0.34206 -0.47265,-0.53711 -0.12618,-0.19505 -0.22207,-0.40529 -0.28516,-0.63281 -0.0631,-0.22753 -0.0937,-0.47243 -0.0937,-0.73243 0,-0.25947 0.0448,-0.51917 0.13672,-0.77929 0.0919,-0.26013 0.23056,-0.5193 0.41406,-0.7793 0.367,-0.52 0.824,-1.10586 1.375,-1.75586 l 35.23438,-46.22656 -33.03125,-42.91016 c -0.5505,-0.715 -0.96291,-1.36617 -1.23828,-1.95117 -0.27538,-0.585 -0.41407,-1.10455 -0.41407,-1.56055 0,-0.25975 0.0511,-0.50301 0.1543,-0.73046 0.10325,-0.22746 0.25834,-0.43971 0.46484,-0.63477 0.2065,-0.19506 0.46564,-0.37258 0.77539,-0.53516 0.30975,-0.16257 0.67099,-0.30945 1.08399,-0.43945 0.45875,-0.1625 0.98566,-0.30586 1.58203,-0.42773 0.59637,-0.12188 1.26209,-0.22344 1.99609,-0.30469 1.468,-0.1625 3.21002,-0.24219 5.22852,-0.24219 z" />
    <path
       id="path1336"
       style="fill:#000000"
       inkscape:label="kreis haken"
       d="m 352,38.400391 c -2.09869,0 -4.18524,0.05314 -6.25781,0.158203 -2.07258,0.105058 -4.13188,0.261179 -6.17578,0.46875 -2.04392,0.20757 -4.07127,0.465903 -6.08399,0.773437 -2.01272,0.307536 -4.00931,0.665358 -5.98828,1.070313 -1.97897,0.404952 -3.94211,0.857596 -5.88476,1.357422 -1.94268,0.499824 -3.86571,1.046521 -5.76954,1.638672 -1.9038,0.592148 -3.78795,1.230182 -5.65039,1.912109 -1.86244,0.681927 -3.70298,1.406623 -5.52148,2.175781 -1.8185,0.769158 -3.6147,1.581704 -5.38672,2.435547 -1.77202,0.853843 -3.5192,1.749566 -5.24219,2.685547 -1.72299,0.935981 -3.42234,1.912162 -5.09375,2.927734 -1.67141,1.015572 -3.3163,2.071447 -4.93359,3.164063 -1.61729,1.092616 -3.20696,2.221558 -4.76758,3.388672 -1.56062,1.167111 -3.09235,2.372263 -4.59375,3.611328 -1.5014,1.239064 -2.97247,2.513799 -4.41211,3.822265 -1.43964,1.308469 -2.84733,2.650065 -4.22266,4.025391 -1.3753,1.375326 -2.71692,2.783022 -4.02539,4.222656 -1.30845,1.439636 -2.5832,2.91071 -3.82226,4.41211 -1.23907,1.501397 -2.44421,3.033133 -3.61133,4.59375 -1.16711,1.560614 -2.29605,3.150291 -3.38867,4.767578 -1.09262,1.617284 -2.14849,3.262185 -3.16406,4.933593 -1.01558,1.671411 -1.99176,3.370758 -2.92774,5.093748 -0.93598,1.72299 -1.8317,3.47017 -2.68555,5.24219 -0.85382,1.77202 -1.66638,3.56822 -2.43554,5.38672 -0.76916,1.8185 -1.49386,3.65905 -2.17578,5.52148 -0.68193,1.86244 -1.31996,3.74659 -1.91211,5.65039 -0.59215,1.90383 -1.13885,3.82686 -1.63867,5.76954 -0.49983,1.94265 -0.95247,3.90579 -1.35743,5.88476 -0.40495,1.97897 -0.76277,3.97557 -1.07031,5.98828 -0.30753,2.01272 -0.56587,4.04007 -0.77344,6.08399 -0.20757,2.04389 -0.36369,4.1032 -0.46875,6.17578 -0.10505,2.07257 -0.1582,4.15913 -0.1582,6.25781 0,2.09869 0.0532,4.18524 0.1582,6.25781 0.10506,2.07258 0.26118,4.13188 0.46875,6.17578 0.20757,2.04392 0.46591,4.07127 0.77344,6.08399 0.30754,2.01272 0.66536,4.00931 1.07031,5.98828 0.40496,1.97897 0.8576,3.94211 1.35743,5.88476 0.49982,1.94268 1.04652,3.86571 1.63867,5.76954 0.59215,1.9038 1.23018,3.78795 1.91211,5.65039 0.68192,1.86244 1.40662,3.70298 2.17578,5.52148 0.76916,1.8185 1.58172,3.6147 2.43554,5.38672 0.85385,1.77202 1.74957,3.5192 2.68555,5.24219 0.93598,1.72299 1.91216,3.42234 2.92774,5.09375 1.01557,1.67141 2.07144,3.3163 3.16406,4.93359 1.09262,1.61729 2.22156,3.20696 3.38867,4.76758 1.16712,1.56062 2.37226,3.09235 3.61133,4.59375 1.23906,1.5014 2.51381,2.97247 3.82226,4.41211 1.30847,1.43964 2.65009,2.84733 4.02539,4.22266 1.2532,1.25318 2.54104,2.47032 3.84766,3.66796 1.73402,-1.0464 3.48947,-2.06212 5.27344,-3.03125 1.90433,-1.03451 3.83639,-2.02306 5.79492,-2.96679 1.95853,-0.94373 3.94322,-1.84128 5.95313,-2.69141 2.0099,-0.85013 4.04505,-1.65253 6.10351,-2.40625 2.05847,-0.75372 4.13993,-1.45879 6.24414,-2.11328 2.10421,-0.65449 4.23176,-1.26006 6.37891,-1.8125 2.14714,-0.55244 4.31469,-1.05242 6.50195,-1.5 2.18727,-0.44759 4.39457,-0.84173 6.61914,-1.18164 2.22457,-0.33991 4.46556,-0.62605 6.72461,-0.85547 2.25906,-0.22942 4.53544,-0.40146 6.82617,-0.51758 2.29073,-0.11612 4.59643,-0.17578 6.91602,-0.17578 2.31959,0 4.62528,0.0597 6.91601,0.17578 2.29074,0.11612 4.56711,0.28816 6.82618,0.51758 2.25906,0.22942 4.50003,0.51556 6.72461,0.85547 2.22457,0.33991 4.43186,0.73405 6.61914,1.18164 2.18727,0.44758 4.35479,0.94756 6.50195,1.5 2.14716,0.55244 4.27467,1.15801 6.37891,1.8125 2.10423,0.65449 4.18565,1.35956 6.24414,2.11328 2.05848,0.75372 4.09359,1.55612 6.10351,2.40625 2.00993,0.85013 3.99458,1.74768 5.95313,2.69141 1.95855,0.94373 3.89056,1.93228 5.79492,2.96679 1.90436,1.03452 3.78155,2.11385 5.6289,3.23633 1.84736,1.12249 3.66559,2.28846 5.45313,3.4961 1.78754,1.20763 3.54463,2.45806 5.26953,3.74804 0.90739,0.6786 1.78046,1.39882 2.66992,2.09961 0.82488,-0.58506 1.66321,-1.15247 2.47266,-1.75781 1.56062,-1.16712 3.09235,-2.37226 4.59375,-3.61133 1.5014,-1.23906 2.97247,-2.51381 4.41211,-3.82226 1.43964,-1.30847 2.84733,-2.65009 4.22266,-4.02539 1.3753,-1.37533 2.71692,-2.78302 4.02539,-4.22266 1.30845,-1.43964 2.5832,-2.91071 3.82226,-4.41211 1.23907,-1.5014 2.44421,-3.03313 3.61133,-4.59375 1.16711,-1.56062 2.29605,-3.15029 3.38867,-4.76758 1.09262,-1.61729 2.14849,-3.26218 3.16406,-4.93359 1.01558,-1.67141 1.99176,-3.37076 2.92774,-5.09375 0.93598,-1.72299 1.8317,-3.47017 2.68555,-5.24219 0.85382,-1.77202 1.66638,-3.56822 2.43554,-5.38672 0.76916,-1.8185 1.49386,-3.65904 2.17578,-5.52148 0.68193,-1.86244 1.31996,-3.74659 1.91211,-5.65039 0.59215,-1.90383 1.13885,-3.82686 1.63867,-5.76954 0.49983,-1.94265 0.95247,-3.90579 1.35743,-5.88476 0.40495,-1.97897 0.76277,-3.97556 1.07031,-5.98828 0.30753,-2.01272 0.56587,-4.04007 0.77344,-6.08399 0.20757,-2.0439 0.36369,-4.1032 0.46875,-6.17578 0.10505,-2.07257 0.1582,-4.15912 0.1582,-6.25781 0,-2.09868 -0.0531,-4.18524 -0.1582,-6.25781 -0.10506,-2.07258 -0.26118,-4.13189 -0.46875,-6.17578 -0.20757,-2.04392 -0.46591,-4.07127 -0.77344,-6.08399 -0.30754,-2.01271 -0.66536,-4.00931 -1.07031,-5.98828 -0.40496,-1.97897 -0.8576,-3.94211 -1.35743,-5.88476 -0.49982,-1.94268 -1.04652,-3.86571 -1.63867,-5.76954 -0.59215,-1.9038 -1.23018,-3.78795 -1.91211,-5.65039 -0.68192,-1.86243 -1.40662,-3.70298 -2.17578,-5.52148 -0.76916,-1.8185 -1.58172,-3.6147 -2.43554,-5.38672 -0.85385,-1.77202 -1.74957,-3.5192 -2.68555,-5.24219 -0.93598,-1.72299 -1.91216,-3.422337 -2.92774,-5.093748 -1.01557,-1.671408 -2.07144,-3.316309 -3.16406,-4.933593 -1.09262,-1.617287 -2.22156,-3.206964 -3.38867,-4.767578 -1.16712,-1.560617 -2.37226,-3.092353 -3.61133,-4.59375 -1.23906,-1.5014 -2.51381,-2.972474 -3.82226,-4.41211 -1.30847,-1.439634 -2.65009,-2.84733 -4.02539,-4.222656 -1.37533,-1.375326 -2.78302,-2.716922 -4.22266,-4.025391 -1.43964,-1.308466 -2.91071,-2.583201 -4.41211,-3.822265 -1.5014,-1.239065 -3.03313,-2.444217 -4.59375,-3.611328 -1.56062,-1.167114 -3.15029,-2.296056 -4.76758,-3.388672 -1.61729,-1.092616 -3.26218,-2.148491 -4.93359,-3.164063 -1.67141,-1.015572 -3.37076,-1.991753 -5.09375,-2.927734 -1.72299,-0.935981 -3.47017,-1.831704 -5.24219,-2.685547 -1.77202,-0.853843 -3.56822,-1.666389 -5.38672,-2.435547 -1.8185,-0.769158 -3.65904,-1.493854 -5.52148,-2.175781 -1.86244,-0.681927 -3.74659,-1.319961 -5.65039,-1.912109 -1.90383,-0.592151 -3.82686,-1.138848 -5.76954,-1.638672 -1.94265,-0.499826 -3.90579,-0.95247 -5.88476,-1.357422 -1.97897,-0.404955 -3.97556,-0.762777 -5.98828,-1.070313 -2.01272,-0.307534 -4.04007,-0.565867 -6.08399,-0.773437 -2.0439,-0.207571 -4.1032,-0.363692 -6.17578,-0.46875 C 356.18524,38.453535 354.09869,38.400391 352,38.400391 Z m 51.07227,51.199218 c 0.41275,-0.0045 0.82808,0.01091 1.24218,0.04687 0.4141,0.03596 0.82769,0.09262 1.24024,0.169922 0.41254,0.0773 0.82432,0.175392 1.23242,0.294922 0.40809,0.119531 0.81214,0.259222 1.21289,0.421875 0.40075,0.162653 0.797,0.348019 1.1875,0.554688 0.3905,0.206711 0.76709,0.429991 1.12695,0.669921 0.35986,0.239932 0.70293,0.495373 1.03125,0.765626 0.32833,0.270251 0.6416,0.555838 0.9375,0.853515 0.29591,0.297677 0.5753,0.607485 0.83789,0.929688 0.2626,0.322201 0.50794,0.656168 0.73633,1 0.22839,0.34383 0.43952,0.697984 0.63281,1.060547 0.1933,0.362561 0.36809,0.734885 0.52539,1.113281 0.15732,0.378394 0.29754,0.762966 0.41797,1.154297 0.12044,0.391329 0.22202,0.788084 0.30469,1.189453 0.0827,0.401366 0.14544,0.808286 0.18945,1.216806 0.044,0.4085 0.0697,0.81967 0.0742,1.23242 0.004,0.41275 -0.0109,0.82614 -0.0469,1.24023 -0.036,0.4141 -0.0926,0.82769 -0.16992,1.24024 -0.0773,0.41254 -0.17541,0.82432 -0.29493,1.23242 -0.11951,0.40809 -0.2612,0.8141 -0.42382,1.21484 -0.16263,0.40075 -0.34611,0.797 -0.55274,1.1875 l -48.16406,90.96093 c -0.27444,0.51841 -0.56177,1.02223 -0.86328,1.51172 -0.30152,0.48948 -0.61636,0.96534 -0.94336,1.42578 -0.32701,0.46044 -0.66668,0.90663 -1.01758,1.33789 -0.3509,0.43126 -0.71273,0.84803 -1.08594,1.25 -0.37321,0.40197 -0.75841,0.78761 -1.15234,1.16016 -0.39393,0.37254 -0.79788,0.73122 -1.21094,1.07422 -0.41305,0.34298 -0.83503,0.67105 -1.26562,0.98437 -0.43059,0.31332 -0.86987,0.61101 -1.31641,0.89453 -0.44653,0.28353 -0.90044,0.55304 -1.36133,0.80664 -0.46089,0.2536 -0.92869,0.49129 -1.40234,0.71485 -0.47365,0.22355 -0.95268,0.43357 -1.4375,0.62695 -0.48483,0.19338 -0.97434,0.37012 -1.46875,0.5332 -0.49441,0.16308 -0.9937,0.31266 -1.4961,0.44531 -0.50238,0.13266 -1.00877,0.24946 -1.51757,0.35157 -0.5088,0.1021 -1.0196,0.18833 -1.53321,0.25976 -0.5136,0.0714 -1.03004,0.12734 -1.54687,0.16797 -0.51683,0.0406 -1.03428,0.0665 -1.55274,0.0762 -0.51845,0.01 -1.03814,0.004 -1.55664,-0.0176 -0.51849,-0.0213 -1.03579,-0.0588 -1.55273,-0.11132 -0.51694,-0.0525 -1.03308,-0.11931 -1.54688,-0.20313 -0.51379,-0.0838 -1.02609,-0.18358 -1.53515,-0.29883 -0.50906,-0.11524 -1.01484,-0.24578 -1.51758,-0.39257 -0.50274,-0.1468 -1.00127,-0.30982 -1.49609,-0.48829 -0.49483,-0.17847 -0.98539,-0.37371 -1.47071,-0.58398 -0.48531,-0.21027 -0.96523,-0.43554 -1.43945,-0.67773 -0.47422,-0.2422 -0.94277,-0.50116 -1.4043,-0.77539 -0.46153,-0.27425 -0.91603,-0.56467 -1.36328,-0.8711 -0.44725,-0.30642 -0.88697,-0.62807 -1.31836,-0.9668 -0.43138,-0.33872 -0.85561,-0.69329 -1.26953,-1.06445 -0.41392,-0.37115 -0.81802,-0.76035 -1.21289,-1.16406 -0.39487,-0.40371 -0.78006,-0.82338 -1.1543,-1.25977 -0.37423,-0.43638 -0.73784,-0.88823 -1.08984,-1.35742 l -26.28711,-35.0625 c -0.265,-0.35344 -0.50929,-0.7175 -0.73242,-1.08789 -0.22313,-0.37038 -0.42574,-0.74846 -0.60742,-1.13281 -0.18169,-0.38435 -0.34175,-0.77462 -0.48243,-1.16992 -0.14066,-0.39531 -0.26123,-0.79595 -0.36132,-1.19922 -0.10009,-0.40326 -0.1803,-0.80857 -0.24024,-1.2168 -0.0599,-0.40823 -0.0989,-0.81832 -0.11914,-1.22852 -0.0202,-0.41018 -0.021,-0.82129 -0.002,-1.23046 0.0191,-0.40916 0.0573,-0.81752 0.11523,-1.22265 0.058,-0.40514 0.13604,-0.80697 0.23242,-1.20509 0.0964,-0.39811 0.21131,-0.79159 0.34571,-1.17968 0.1344,-0.3881 0.287,-0.77142 0.45898,-1.14648 0.17198,-0.37507 0.36314,-0.74252 0.57227,-1.10157 0.20913,-0.35904 0.43774,-0.70879 0.68359,-1.04883 0.24585,-0.34003 0.50888,-0.67026 0.79102,-0.98828 0.28214,-0.31802 0.58238,-0.62301 0.90039,-0.91602 0.318,-0.29301 0.65437,-0.57289 1.00781,-0.83789 0.35344,-0.26499 0.71555,-0.50928 1.08594,-0.73241 0.37039,-0.22313 0.74846,-0.42574 1.13281,-0.60742 0.38435,-0.18169 0.77462,-0.3437 1.16992,-0.48438 0.39531,-0.14067 0.79595,-0.25928 1.19922,-0.35937 0.40327,-0.10009 0.81052,-0.1803 1.21875,-0.24024 0.40823,-0.0599 0.81832,-0.10088 1.22852,-0.12109 0.4102,-0.0202 0.81934,-0.021 1.22851,-0.002 0.40917,0.0191 0.81752,0.0592 1.22266,0.11718 0.40514,0.058 0.80696,0.13408 1.20508,0.23047 0.39811,0.0964 0.79159,0.21326 1.17968,0.34766 0.38809,0.1344 0.77142,0.28701 1.14649,0.45898 0.37507,0.17198 0.74251,0.36314 1.10156,0.57227 0.35905,0.20913 0.7088,0.43579 1.04883,0.68164 0.34003,0.24585 0.67026,0.51083 0.98828,0.79297 0.31802,0.28214 0.62496,0.58239 0.91797,0.90039 0.29301,0.318 0.57289,0.65242 0.83789,1.00586 l 26.28711,35.05078 48.16211,-90.962886 c 0.20675,-0.390454 0.43191,-0.765169 0.67187,-1.125 0.23997,-0.359829 0.49535,-0.70489 0.76563,-1.033203 0.27028,-0.328312 0.55386,-0.639644 0.85156,-0.935547 0.2977,-0.295901 0.60942,-0.575292 0.93164,-0.83789 0.32223,-0.262599 0.65615,-0.507926 1,-0.736328 0.34385,-0.228403 0.69797,-0.439498 1.06055,-0.632813 0.36258,-0.193314 0.73292,-0.37001 1.11133,-0.527344 0.37841,-0.157332 0.7649,-0.295556 1.15625,-0.416015 0.39134,-0.12046 0.78807,-0.221995 1.18945,-0.304688 0.40138,-0.08269 0.80633,-0.147373 1.21484,-0.191406 0.40852,-0.04403 0.81967,-0.06778 1.23243,-0.07227 z" />
    <path
       id="path1306"
       style="display:inline;fill:#000000"
       d="m 339.19922,243.19922 c -2.09869,0 -4.18328,0.0531 -6.25586,0.1582 -2.07258,0.10506 -4.13186,0.26315 -6.17578,0.4707 -2.04392,0.20758 -4.07322,0.46591 -6.08594,0.77344 -2.01272,0.30754 -4.00931,0.66341 -5.98828,1.06836 -1.97897,0.40496 -3.94016,0.8576 -5.88281,1.35742 -1.94267,0.49983 -3.86766,1.04653 -5.77149,1.63868 -1.90383,0.59215 -3.786,1.2302 -5.64844,1.9121 -1.86241,0.68193 -3.70493,1.40858 -5.52343,2.17774 -1.8185,0.76916 -3.6147,1.5817 -5.38672,2.43555 -1.77202,0.85384 -3.5192,1.74956 -5.24219,2.68554 -1.72299,0.93598 -3.42038,1.91216 -5.0918,2.92774 -1.67139,1.01557 -3.3163,2.06949 -4.93359,3.16211 -1.61729,1.09261 -3.20696,2.22351 -4.76758,3.39062 -1.56062,1.16712 -3.09235,2.37031 -4.59375,3.60938 -1.5014,1.23906 -2.97247,2.51379 -4.41211,3.82226 -1.43963,1.30847 -2.84928,2.65202 -4.22461,4.02735 -1.3753,1.3753 -2.71692,2.78302 -4.02539,4.22265 -1.30847,1.43964 -2.5832,2.91071 -3.82226,4.41211 -1.23907,1.5014 -2.44226,3.03313 -3.60938,4.59375 -1.16711,1.56062 -2.29801,3.15029 -3.39062,4.76758 -1.09262,1.61729 -2.14654,3.2622 -3.16211,4.93359 -1.01557,1.67142 -1.99175,3.36881 -2.92774,5.0918 -0.93598,1.72299 -1.8317,3.47212 -2.68554,5.24414 -0.85385,1.77202 -1.66639,3.56626 -2.43555,5.38477 -0.76916,1.8185 -1.49583,3.66102 -2.17773,5.52343 -0.68193,1.86244 -1.31996,3.74659 -1.91211,5.65039 -0.59215,1.90383 -1.13885,3.82686 -1.63868,5.76954 -0.49982,1.94265 -0.95246,3.90384 -1.35742,5.88281 -0.40495,1.97897 -0.76082,3.97556 -1.06836,5.98828 -0.30753,2.01272 -0.56586,4.04202 -0.77343,6.08594 -0.20757,2.04392 -0.36565,4.1032 -0.47071,6.17578 -0.10506,2.07257 -0.1582,4.15913 -0.1582,6.25781 0,2.09869 0.0531,4.18328 0.1582,6.25586 0.10506,2.07258 0.26314,4.13186 0.47071,6.17578 0.20757,2.04392 0.4659,4.07322 0.77343,6.08594 0.30754,2.01272 0.66341,4.00931 1.06836,5.98828 0.40496,1.97897 0.8576,3.94016 1.35742,5.88281 0.49983,1.94267 1.04653,3.86766 1.63868,5.77149 0.59215,1.90383 1.23018,3.786 1.91211,5.64844 0.6819,1.86241 1.40857,3.70493 2.17773,5.52343 0.76916,1.8185 1.5817,3.6147 2.43555,5.38672 0.85384,1.77202 1.74956,3.5192 2.68554,5.24219 0.93599,1.72299 1.91217,3.42038 2.92774,5.0918 1.01557,1.67139 2.06949,3.3163 3.16211,4.93359 1.09261,1.61729 2.22351,3.20696 3.39062,4.76758 1.16712,1.56062 2.37031,3.09235 3.60938,4.59375 1.23906,1.5014 2.51379,2.97247 3.82226,4.41211 1.30847,1.43963 2.65009,2.84928 4.02539,4.22461 1.37533,1.3753 2.78498,2.71692 4.22461,4.02539 1.43964,1.30847 2.91071,2.5832 4.41211,3.82226 1.5014,1.23907 3.03313,2.44226 4.59375,3.60938 1.56062,1.16711 3.15029,2.29801 4.76758,3.39062 1.61729,1.09262 3.2622,2.14654 4.93359,3.16211 1.67142,1.01557 3.36881,1.99175 5.0918,2.92774 1.72299,0.93598 3.47017,1.8317 5.24219,2.68554 1.77202,0.85385 3.56822,1.66639 5.38672,2.43555 1.8185,0.76916 3.66102,1.49583 5.52343,2.17773 1.86244,0.68193 3.74461,1.31996 5.64844,1.91211 1.90383,0.59215 3.82882,1.13885 5.77149,1.63868 1.94265,0.49982 3.90384,0.95246 5.88281,1.35742 1.97897,0.40495 3.97556,0.76082 5.98828,1.06836 2.01272,0.30753 4.04202,0.56586 6.08594,0.77343 2.04392,0.20757 4.1032,0.36565 6.17578,0.47071 2.07258,0.10506 4.15717,0.1582 6.25586,0.1582 2.09868,0 4.18524,-0.0531 6.25781,-0.1582 2.07258,-0.10506 4.13186,-0.26314 6.17578,-0.47071 2.04392,-0.20757 4.07322,-0.4659 6.08594,-0.77343 2.01272,-0.30754 4.00931,-0.66341 5.98828,-1.06836 1.97897,-0.40496 3.94016,-0.8576 5.88281,-1.35742 1.94268,-0.49983 3.86571,-1.04653 5.76954,-1.63868 1.9038,-0.59215 3.78795,-1.23018 5.65039,-1.91211 1.86241,-0.6819 3.70493,-1.40857 5.52343,-2.17773 1.81851,-0.76916 3.61275,-1.5817 5.38477,-2.43555 1.77202,-0.85384 3.52115,-1.74956 5.24414,-2.68554 1.72299,-0.93599 3.42038,-1.91217 5.0918,-2.92774 1.67139,-1.01557 3.3163,-2.06949 4.93359,-3.16211 1.61729,-1.09261 3.20696,-2.22351 4.76758,-3.39062 1.56062,-1.16712 3.09235,-2.37031 4.59375,-3.60938 1.5014,-1.23906 2.97247,-2.51379 4.41211,-3.82226 1.43963,-1.30847 2.84735,-2.65009 4.22265,-4.02539 1.37533,-1.37533 2.71888,-2.78498 4.02735,-4.22461 1.30847,-1.43964 2.5832,-2.91071 3.82226,-4.41211 1.23907,-1.5014 2.44226,-3.03313 3.60938,-4.59375 1.16711,-1.56062 2.29801,-3.15029 3.39062,-4.76758 1.09262,-1.61729 2.14654,-3.2622 3.16211,-4.93359 1.01558,-1.67142 1.99176,-3.36881 2.92774,-5.0918 0.93598,-1.72299 1.8317,-3.47017 2.68554,-5.24219 0.85385,-1.77202 1.66639,-3.56822 2.43555,-5.38672 0.76916,-1.8185 1.49581,-3.66102 2.17774,-5.52343 0.6819,-1.86244 1.31995,-3.74461 1.9121,-5.64844 0.59215,-1.90383 1.13885,-3.82882 1.63868,-5.77149 0.49982,-1.94265 0.95246,-3.90384 1.35742,-5.88281 0.40495,-1.97897 0.76082,-3.97556 1.06836,-5.98828 0.30753,-2.01272 0.56586,-4.04202 0.77344,-6.08594 0.20755,-2.04392 0.36564,-4.1032 0.4707,-6.17578 0.10506,-2.07258 0.1582,-4.15717 0.1582,-6.25586 0,-2.09868 -0.0531,-4.18524 -0.1582,-6.25781 -0.10506,-2.07258 -0.26315,-4.13186 -0.4707,-6.17578 -0.20758,-2.04392 -0.46591,-4.07322 -0.77344,-6.08594 -0.30754,-2.01272 -0.66341,-4.00931 -1.06836,-5.98828 -0.40496,-1.97897 -0.8576,-3.94016 -1.35742,-5.88281 -0.49983,-1.94268 -1.04653,-3.86571 -1.63868,-5.76954 -0.59215,-1.9038 -1.2302,-3.78795 -1.9121,-5.65039 -0.68193,-1.86241 -1.40858,-3.70493 -2.17774,-5.52343 -0.76916,-1.81851 -1.5817,-3.61275 -2.43555,-5.38477 -0.85384,-1.77202 -1.74956,-3.52115 -2.68554,-5.24414 -0.93598,-1.72299 -1.91216,-3.42038 -2.92774,-5.0918 -1.01557,-1.67139 -2.06949,-3.3163 -3.16211,-4.93359 -1.09261,-1.61729 -2.22351,-3.20696 -3.39062,-4.76758 -1.16712,-1.56062 -2.37031,-3.09235 -3.60938,-4.59375 -1.23906,-1.5014 -2.51379,-2.97247 -3.82226,-4.41211 -1.30847,-1.43963 -2.65202,-2.84735 -4.02735,-4.22265 -1.3753,-1.37533 -2.78302,-2.71888 -4.22265,-4.02735 -1.43964,-1.30847 -2.91071,-2.5832 -4.41211,-3.82226 -1.5014,-1.23907 -3.03313,-2.44226 -4.59375,-3.60938 -1.56062,-1.16711 -3.15029,-2.29801 -4.76758,-3.39062 -1.61729,-1.09262 -3.2622,-2.14654 -4.93359,-3.16211 -1.67142,-1.01558 -3.36881,-1.99176 -5.0918,-2.92774 -1.72299,-0.93598 -3.47212,-1.8317 -5.24414,-2.68554 -1.77202,-0.85385 -3.56626,-1.66639 -5.38477,-2.43555 -1.8185,-0.76916 -3.66102,-1.49581 -5.52343,-2.17774 -1.86244,-0.6819 -3.74659,-1.31995 -5.65039,-1.9121 -1.90383,-0.59215 -3.82686,-1.13885 -5.76954,-1.63868 -1.94265,-0.49982 -3.90384,-0.95246 -5.88281,-1.35742 -1.97897,-0.40495 -3.97556,-0.76082 -5.98828,-1.06836 -2.01272,-0.30753 -4.04202,-0.56586 -6.08594,-0.77344 -2.04392,-0.20755 -4.1032,-0.36564 -6.17578,-0.4707 -2.07257,-0.10506 -4.15913,-0.1582 -6.25781,-0.1582 z m 1.48828,48.63867 c 2.298,0 4.52307,0.094 6.67578,0.2832 2.15271,0.18919 4.23346,0.47415 6.23828,0.85547 2.00483,0.38133 3.93474,0.85912 5.78906,1.43555 0.92717,0.28822 1.83557,0.59995 2.72461,0.9375 0.88906,0.33755 1.75876,0.70064 2.60938,1.08789 l 2.51172,1.19922 c 1.42049,0.73025 2.76859,1.51402 4.04297,2.35156 1.27438,0.83754 2.47447,1.72969 3.59961,2.67578 1.12513,0.9461 2.17568,1.94604 3.14843,3.00196 0.97276,1.0559 1.8683,2.16698 2.68555,3.33398 l 1.36133,2.03711 c 0.7455,1.20675 1.39843,2.44656 1.95898,3.7168 0.56056,1.27023 1.02964,2.57002 1.4043,3.90234 0.37466,1.33232 0.65594,2.69686 0.84375,4.08984 0.18781,1.39299 0.28125,2.81534 0.28125,4.26758 0,1.29 -0.0697,2.56074 -0.21094,3.81055 -0.14128,1.24981 -0.35367,2.47933 -0.63672,3.6875 -0.28304,1.20816 -0.63721,2.39548 -1.0625,3.56055 -0.42528,1.16505 -0.92223,2.30723 -1.49023,3.42773 l -0.0254,0.0254 c -0.54675,1.04375 -1.13147,2.07809 -1.75391,3.10156 -0.62243,1.02348 -1.28247,2.03593 -1.98047,3.03907 -0.698,1.00312 -1.43359,1.99578 -2.20703,2.97851 -0.77343,0.98273 -1.58484,1.95572 -2.43359,2.91797 l -0.0371,0.0371 c -3.287,3.594 -6.65189,7.19609 -10.08789,10.78906 l -0.0371,0.0371 c -2.5035,2.493 -4.82095,4.89546 -6.95117,7.21094 -2.13022,2.31548 -4.07322,4.544 -5.82422,6.6875 l 0.0137,0.0137 c -0.789,0.97825 -1.49796,1.97502 -2.12891,2.99219 -0.63093,1.01717 -1.1834,2.05451 -1.6582,3.11133 -0.4748,1.05681 -0.87279,2.13329 -1.19336,3.23047 -0.32057,1.09716 -0.56417,2.21526 -0.73242,3.35351 -0.0612,0.49675 -0.16731,0.97471 -0.32031,1.42969 -0.153,0.45497 -0.3522,0.88697 -0.59766,1.29101 -0.24546,0.40405 -0.53833,0.78103 -0.87695,1.125 -0.33863,0.34398 -0.72375,0.65494 -1.15625,0.92969 -0.428,0.272 -0.906,0.49478 -1.42578,0.67578 -0.51979,0.18101 -1.08174,0.32044 -1.67383,0.42578 -0.59209,0.10534 -1.21447,0.1757 -1.85938,0.22071 -0.64491,0.045 -1.31198,0.0645 -1.99023,0.0645 h -3.34766 c -0.61099,0 -1.21193,-0.0258 -1.79687,-0.082 -0.58494,-0.0562 -1.15438,-0.14322 -1.70117,-0.26758 -0.5468,-0.12436 -1.0718,-0.28578 -1.56836,-0.49023 -0.49657,-0.20446 -0.96419,-0.45155 -1.39844,-0.74805 -0.47775,-0.326 -0.89207,-0.69462 -1.24414,-1.09961 -0.35207,-0.40499 -0.64245,-0.84596 -0.87305,-1.31641 -0.2306,-0.47045 -0.40035,-0.96981 -0.51367,-1.49218 -0.11332,-0.52237 -0.16967,-1.06816 -0.16992,-1.62891 0,-1.27125 0.10973,-2.57121 0.32617,-3.89844 0.21644,-1.32723 0.53906,-2.68177 0.96289,-4.0625 0.42383,-1.38073 0.95008,-2.78701 1.57227,-4.21875 0.62218,-1.43173 1.34084,-2.88889 2.15234,-4.36914 0.81875,-1.49324 1.72609,-2.9859 2.72266,-4.47851 0.99656,-1.49263 2.08298,-2.98465 3.25586,-4.47657 1.17286,-1.4919 2.43356,-2.98348 3.78125,-4.47461 1.34767,-1.49111 2.78173,-2.98241 4.30273,-4.47265 2.50449,-2.4935 4.84081,-4.91711 7.00781,-7.27149 2.167,-2.35436 4.16469,-4.63952 5.99219,-6.85351 l 1.23828,-1.59961 c 0.67375,-0.93825 1.25894,-1.88349 1.75781,-2.83789 0.49887,-0.95441 0.91191,-1.91871 1.24024,-2.89063 0.32832,-0.97191 0.57225,-1.95258 0.73437,-2.94336 0.16212,-0.99078 0.24194,-1.99095 0.24219,-3.00195 0,-0.735 -0.0289,-1.43912 -0.0879,-2.11328 -0.059,-0.67416 -0.14894,-1.31817 -0.26562,-1.93359 -0.1167,-0.61543 -0.26055,-1.20292 -0.4336,-1.76172 -0.17305,-0.55881 -0.37544,-1.08945 -0.60351,-1.59375 -0.22808,-0.5043 -0.48191,-0.9817 -0.76368,-1.4336 -0.28176,-0.4519 -0.58969,-0.87768 -0.92382,-1.27929 -0.33414,-0.40162 -0.69491,-0.77938 -1.08008,-1.13282 -0.38517,-0.35344 -0.7956,-0.68286 -1.23047,-0.99023 l -0.0488,-0.0254 c -0.464,-0.34188 -0.95638,-0.66494 -1.47656,-0.96875 -0.52019,-0.30382 -1.06888,-0.5891 -1.64649,-0.85352 -0.5776,-0.26442 -1.18404,-0.50873 -1.82031,-0.73242 -0.63626,-0.22369 -1.30188,-0.4258 -1.99805,-0.60742 -1.39231,-0.36324 -2.90558,-0.64116 -4.54492,-0.82813 -1.63933,-0.18696 -3.40453,-0.2832 -5.30078,-0.2832 -1.0655,0 -2.10636,0.0321 -3.12109,0.0957 -1.01474,0.0636 -2.0024,0.15929 -2.9668,0.28516 -0.9644,0.12588 -1.90387,0.28191 -2.81836,0.46875 -0.91448,0.18684 -1.80492,0.40389 -2.66992,0.65039 l -0.0488,0.0117 c -1.744,0.453 -3.35095,0.91891 -4.82031,1.39648 -1.46936,0.47757 -2.80114,0.9668 -3.99414,1.4668 l -0.0117,-0.0137 c -1.1675,0.519 -2.28703,0.96874 -3.31836,1.28906 -0.51567,0.16016 -1.00931,0.28723 -1.47656,0.375 -0.46725,0.0878 -0.90716,0.13647 -1.31641,0.13672 -0.54575,0 -1.04271,-0.10472 -1.49414,-0.2832 -0.45143,-0.17849 -0.85784,-0.43056 -1.2207,-0.72266 -0.36286,-0.2921 -0.68284,-0.62594 -0.96289,-0.9668 -0.28006,-0.34085 -0.51966,-0.68892 -0.72266,-1.01367 l -0.0625,-0.10351 c -0.408,-0.7255 -0.7938,-1.48519 -1.15625,-2.27539 -0.36244,-0.79021 -0.70153,-1.61094 -1.01953,-2.46094 l -0.0742,-0.19922 c -0.234,-0.835 -0.42422,-1.63436 -0.55664,-2.38477 -0.13242,-0.75039 -0.20703,-1.45184 -0.20703,-2.08984 0,-0.448 0.0525,-0.87891 0.15039,-1.29101 0.0979,-0.41212 0.24226,-0.80478 0.42187,-1.17969 0.17962,-0.37491 0.39558,-0.73199 0.64063,-1.06836 0.24505,-0.33637 0.51825,-0.65272 0.8125,-0.94922 0.576,-0.58 1.26123,-1.11578 2.0332,-1.61328 0.77197,-0.4975 1.63069,-0.95672 2.55469,-1.38672 0.9525,-0.45875 1.95531,-0.89259 3.00586,-1.30273 1.05055,-0.41016 2.14798,-0.79738 3.29492,-1.16016 1.14694,-0.36279 2.34232,-0.70093 3.58399,-1.01758 1.24166,-0.31665 2.53048,-0.61106 3.86523,-0.88281 1.34075,-0.27275 2.674,-0.51307 3.99805,-0.71875 1.32404,-0.20568 2.638,-0.37581 3.94531,-0.51367 1.30731,-0.13787 2.60789,-0.2432 3.89844,-0.3125 1.29054,-0.0693 2.57195,-0.10352 3.8457,-0.10352 z m -8.25977,121.48633 h 3.125 c 0.39075,0 0.76839,0.006 1.13477,0.0176 0.36638,0.0114 0.72247,0.028 1.06445,0.0508 0.34198,0.0228 0.67074,0.0518 0.98828,0.0859 0.31755,0.0342 0.62294,0.0736 0.91602,0.11914 0.29308,0.0456 0.5733,0.0973 0.8418,0.15429 0.2685,0.057 0.52528,0.11915 0.76953,0.1875 0.24424,0.0684 0.47563,0.1429 0.69531,0.22266 0.21968,0.0798 0.42764,0.16472 0.62305,0.25586 0.0977,0.0456 0.19147,0.0922 0.2832,0.14062 0.0917,0.0484 0.18191,0.0991 0.26758,0.15039 0.0857,0.0513 0.16852,0.10409 0.24805,0.15821 0.0795,0.0541 0.15523,0.10905 0.22851,0.16601 0.0733,0.057 0.1438,0.11597 0.21094,0.17578 0.0671,0.0598 0.13039,0.12094 0.1914,0.1836 0.061,0.0627 0.11891,0.12589 0.17383,0.1914 0.0549,0.0655 0.1074,0.13281 0.15625,0.20118 0.0489,0.0684 0.094,0.13777 0.13672,0.20898 0.0427,0.0712 0.0825,0.1447 0.11914,0.21875 0.0366,0.074 0.0711,0.14966 0.10156,0.22656 0.0305,0.0769 0.0576,0.15462 0.082,0.23438 0.0244,0.0798 0.0461,0.16154 0.0644,0.24414 0.0183,0.0826 0.0327,0.16651 0.0449,0.25195 0.0122,0.0855 0.0213,0.17147 0.0274,0.25977 0.006,0.0883 0.01,0.17837 0.01,0.26953 v 13.125 c 0,0.0911 -0.004,0.18123 -0.01,0.26953 -0.006,0.0883 -0.0152,0.17432 -0.0274,0.25977 -0.0122,0.0854 -0.0266,0.16935 -0.0449,0.25195 -0.0183,0.0826 -0.04,0.16438 -0.0644,0.24414 -0.0244,0.0798 -0.0515,0.15747 -0.082,0.23437 -0.0305,0.0769 -0.065,0.15251 -0.10156,0.22657 -0.0366,0.074 -0.0764,0.14754 -0.11914,0.21875 -0.0427,0.0712 -0.0879,0.14062 -0.13672,0.20898 -0.0489,0.0684 -0.10132,0.13566 -0.15625,0.20117 -0.0549,0.0655 -0.11281,0.12875 -0.17383,0.19141 -0.061,0.0627 -0.12426,0.12378 -0.1914,0.18359 -0.0671,0.0598 -0.13766,0.11882 -0.21094,0.17578 -0.0733,0.057 -0.14899,0.1119 -0.22851,0.16602 -0.0795,0.0541 -0.16238,0.10693 -0.24805,0.1582 -0.0857,0.0513 -0.17585,0.10197 -0.26758,0.15039 -0.0917,0.0484 -0.1855,0.0951 -0.2832,0.14063 -0.19541,0.0911 -0.40337,0.1761 -0.62305,0.25586 -0.21968,0.0797 -0.45107,0.1543 -0.69531,0.22265 -0.24425,0.0684 -0.50103,0.13053 -0.76953,0.1875 -0.2685,0.057 -0.54872,0.10874 -0.8418,0.1543 -0.29308,0.0456 -0.59847,0.085 -0.91602,0.11914 -0.31754,0.0342 -0.6463,0.0632 -0.98828,0.0859 -0.34198,0.0228 -0.69807,0.0394 -1.06445,0.0508 -0.36638,0.0114 -0.74402,0.0176 -1.13477,0.0176 h -3.125 c -0.39062,0 -0.76857,-0.006 -1.13476,-0.0176 -0.3662,-0.0114 -0.72072,-0.028 -1.0625,-0.0508 -0.34179,-0.0228 -0.67089,-0.0518 -0.98828,-0.0859 -0.31739,-0.0342 -0.623,-0.0736 -0.91602,-0.11914 -0.29301,-0.0456 -0.57327,-0.0973 -0.84179,-0.1543 -0.26853,-0.057 -0.52534,-0.11914 -0.76954,-0.1875 -0.24419,-0.0684 -0.47561,-0.1429 -0.69531,-0.22265 -0.2197,-0.0798 -0.42767,-0.16472 -0.62305,-0.25586 -0.0977,-0.0456 -0.19147,-0.0922 -0.2832,-0.14063 -0.0917,-0.0484 -0.1819,-0.0991 -0.26758,-0.15039 -0.0857,-0.0513 -0.16852,-0.10408 -0.24804,-0.1582 -0.0795,-0.0541 -0.15525,-0.10905 -0.22852,-0.16602 -0.0733,-0.057 -0.1438,-0.11596 -0.21094,-0.17578 -0.0671,-0.0598 -0.13038,-0.12093 -0.1914,-0.18359 -0.061,-0.0627 -0.1189,-0.1259 -0.17383,-0.19141 -0.0549,-0.0655 -0.1074,-0.13281 -0.15625,-0.20117 -0.0489,-0.0684 -0.094,-0.13778 -0.13672,-0.20898 -0.0427,-0.0712 -0.0825,-0.1447 -0.11914,-0.21875 -0.0366,-0.0741 -0.071,-0.14966 -0.10156,-0.22657 -0.0305,-0.0769 -0.0576,-0.15461 -0.082,-0.23437 -0.0244,-0.0798 -0.0461,-0.16154 -0.0645,-0.24414 -0.0183,-0.0826 -0.0327,-0.16651 -0.0449,-0.25195 -0.0122,-0.0854 -0.0212,-0.17147 -0.0273,-0.25977 -0.006,-0.0883 -0.01,-0.17838 -0.01,-0.26953 v -13.125 c 0,-0.0912 0.004,-0.18123 0.01,-0.26953 0.006,-0.0883 0.0151,-0.17432 0.0273,-0.25977 0.0122,-0.0854 0.0266,-0.16935 0.0449,-0.25195 0.0183,-0.0826 0.04,-0.16438 0.0645,-0.24414 0.0244,-0.0798 0.0515,-0.15747 0.082,-0.23438 0.0305,-0.0769 0.065,-0.15251 0.10156,-0.22656 0.0366,-0.074 0.0764,-0.14754 0.11914,-0.21875 0.0427,-0.0712 0.0879,-0.14062 0.13672,-0.20898 0.0488,-0.0684 0.10132,-0.13566 0.15625,-0.20118 0.0549,-0.0655 0.1128,-0.12874 0.17383,-0.1914 0.061,-0.0627 0.12427,-0.12378 0.1914,-0.1836 0.0671,-0.0598 0.13767,-0.11881 0.21094,-0.17578 0.0733,-0.057 0.14899,-0.11189 0.22852,-0.16601 0.0795,-0.0541 0.16236,-0.10694 0.24804,-0.15821 0.0857,-0.0513 0.17585,-0.10197 0.26758,-0.15039 0.0917,-0.0484 0.18552,-0.095 0.2832,-0.14062 0.19538,-0.0911 0.40335,-0.1761 0.62305,-0.25586 0.2197,-0.0798 0.45112,-0.1543 0.69531,-0.22266 0.2442,-0.0684 0.50101,-0.13053 0.76954,-0.1875 0.26852,-0.057 0.54878,-0.10873 0.84179,-0.15429 0.29302,-0.0456 0.59863,-0.085 0.91602,-0.11914 0.31739,-0.0342 0.64649,-0.0632 0.98828,-0.0859 0.34178,-0.0228 0.6963,-0.0394 1.0625,-0.0508 0.36619,-0.0114 0.74414,-0.0176 1.13476,-0.0176 z" />
  </g>
</svg>
